<svg width="27" height="56" viewBox="0 0 27 56" fill="none" xmlns="http://www.w3.org/2000/svg">
<g clip-path="url(#clip0_196_519)">
<path d="M18.0174 6.24159C15.6567 3.45303 13.6239 0.62089 13.2086 0.0326784C13.1649 -0.0108928 13.0993 -0.0108928 13.0556 0.0326784C12.6403 0.62089 10.6074 3.45303 8.24672 6.24159C-12.016 31.9704 11.4381 49.3336 11.4381 49.3336L11.6348 49.4643C11.8096 52.144 12.2468 56 12.2468 56H13.1211H13.9955C13.9955 56 14.4327 52.1657 14.6075 49.4643L14.8042 49.3119C14.8261 49.3119 38.2801 31.9704 18.0174 6.24159ZM13.1211 48.9414C13.1211 48.9414 12.072 48.0482 11.7878 47.5907V47.5473L13.0556 19.5308C13.0556 19.4437 13.1867 19.4437 13.1867 19.5308L14.4545 47.5473V47.5907C14.1703 48.0482 13.1211 48.9414 13.1211 48.9414Z" fill="black"/>
</g>
<defs>
<clipPath id="clip0_196_519">
<rect width="26.0465" height="56" fill="white"/>
</clipPath>
</defs>
</svg>
