<svg width="56" height="56" viewBox="0 0 56 56" fill="none" xmlns="http://www.w3.org/2000/svg">
<g clip-path="url(#clip0_196_516)">
<path d="M56 43.3914C53.963 43.9094 52.703 43.4141 51.5725 41.7166L43.533 30.5936L42.371 29.0536L32.9823 41.7534C31.9095 43.2811 30.7843 43.9461 28.7823 43.4054L40.8047 27.2669L29.6117 12.6894C31.5367 12.3149 32.8667 12.5056 34.048 14.2294L42.3867 25.4906L50.7868 14.2906C51.863 12.7629 53.0197 12.1819 54.9517 12.7454L50.6117 18.4994L44.7318 26.1556C44.0317 27.0306 44.128 27.6291 44.772 28.4744L56 43.3914ZM0.014 26.9974L0.9975 22.1604C3.675 12.5879 14.6475 8.61011 22.2145 14.5251C26.6368 18.0041 27.7358 22.9251 27.517 28.4376H2.59C2.2155 38.3601 9.35725 44.3486 18.4625 41.2931C21.6562 40.2204 23.5375 37.7196 24.479 34.5906C24.9567 33.0226 25.7478 32.7776 27.2213 33.2256C26.4688 37.1386 24.7712 40.4076 21.1838 42.4534C15.8235 45.5159 8.1725 44.5254 4.1475 40.2694C1.75 37.8001 0.7595 34.6711 0.315 31.3251C0.245 30.7721 0.105 30.2454 0 29.7151C0.00933333 28.8098 0.014 27.9044 0.014 26.9991V26.9974ZM2.6355 26.3324H25.1615C25.0145 19.1574 20.5467 14.0614 14.441 14.0176C7.7385 13.9651 2.926 18.9404 2.6355 26.3324Z" fill="black"/>
</g>
<defs>
<clipPath id="clip0_196_516">
<rect width="56" height="56" fill="white"/>
</clipPath>
</defs>
</svg>
