<svg width="56" height="56" viewBox="0 0 56 56" fill="none" xmlns="http://www.w3.org/2000/svg">
<g clip-path="url(#clip0_196_512)">
<path d="M53.375 0H2.625C1.17525 0 0 1.17525 0 2.625V53.375C0 54.8247 1.17525 56 2.625 56H53.375C54.8247 56 56 54.8247 56 53.375V2.625C56 1.17525 54.8247 0 53.375 0Z" fill="black"/>
<path fill-rule="evenodd" clip-rule="evenodd" d="M32.4897 43.5173V49.6536C33.4839 50.1646 34.6596 50.5483 36.0171 50.8038C37.3745 51.0597 38.8052 51.1875 40.3092 51.1875C41.7749 51.1875 43.1673 51.0471 44.4863 50.7658C45.8058 50.4844 46.9621 50.0211 47.9566 49.3754C48.9506 48.7296 49.7376 47.8861 50.3177 46.844C50.8974 45.8023 51.1875 44.5143 51.1875 42.9803C51.1875 41.8681 51.0217 40.8934 50.6905 40.056C50.3589 39.2187 49.8811 38.4741 49.2564 37.8221C48.6321 37.1701 47.8831 36.5852 47.0103 36.0675C46.137 35.5498 45.1526 35.0608 44.0562 34.6006C43.2533 34.2682 42.5332 33.9454 41.896 33.6322C41.2587 33.319 40.717 32.9994 40.2709 32.6734C39.8248 32.3474 39.4807 32.0023 39.2385 31.6379C38.9963 31.2736 38.8752 30.8613 38.8752 30.4011C38.8752 29.9792 38.9836 29.5989 39.2003 29.2601C39.417 28.9214 39.7229 28.6305 40.118 28.3876C40.5131 28.1448 40.9974 27.9562 41.5709 27.822C42.1445 27.6877 42.7818 27.6206 43.4828 27.6206C43.9928 27.6206 44.5309 27.659 45.0984 27.7357C45.6654 27.8124 46.2359 27.9306 46.8094 28.0904C47.383 28.2502 47.9404 28.4515 48.4824 28.6944C49.0241 28.9373 49.5241 29.2186 49.9831 29.5382V23.8047C49.0525 23.4467 48.0362 23.1815 46.9337 23.0089C45.8312 22.8363 44.5664 22.75 43.1386 22.75C41.6857 22.75 40.3091 22.9066 39.0091 23.2198C37.709 23.533 36.5651 24.022 35.5773 24.6867C34.5895 25.3515 33.8089 26.1984 33.2353 27.2275C32.6618 28.2566 32.375 29.487 32.375 30.9188C32.375 32.7469 32.9007 34.3065 33.9523 35.5977C35.0038 36.8889 36.6002 37.9819 38.7414 38.8767C39.5826 39.2219 40.3665 39.5607 41.093 39.893C41.8195 40.2254 42.4472 40.5706 42.9762 40.9285C43.5051 41.2865 43.9224 41.6764 44.2282 42.0982C44.5344 42.5201 44.6871 42.9995 44.6871 43.5364C44.6871 43.9329 44.5918 44.3004 44.4006 44.639C44.2094 44.9776 43.9193 45.2716 43.5306 45.521C43.1418 45.7704 42.6575 45.9655 42.0776 46.1059C41.4977 46.2464 40.819 46.3168 40.0415 46.3168C38.7159 46.3168 37.4031 46.0836 36.1031 45.6168C34.803 45.1504 33.5986 44.4504 32.4897 43.5173ZM22.1824 28.2425H30.1875V23.1875H7.875V28.2425H15.841V50.75H22.1824V28.2425Z" fill="white"/>
</g>
<defs>
<clipPath id="clip0_196_512">
<rect width="56" height="56" fill="white"/>
</clipPath>
</defs>
</svg>
