<svg width="62" height="56" viewBox="0 0 62 56" fill="none" xmlns="http://www.w3.org/2000/svg">
<g clip-path="url(#clip0_196_513)">
<path d="M30.5455 33.9258C33.7588 33.9258 36.3637 31.2727 36.3637 27.9999C36.3637 24.7271 33.7588 22.074 30.5455 22.074C27.3322 22.074 24.7273 24.7271 24.7273 27.9999C24.7273 31.2727 27.3322 33.9258 30.5455 33.9258Z" fill="black"/>
<path d="M30.5455 41.3334C46.612 41.3334 59.6364 35.3639 59.6364 28.0001C59.6364 20.6363 46.612 14.6667 30.5455 14.6667C14.479 14.6667 1.45459 20.6363 1.45459 28.0001C1.45459 35.3639 14.479 41.3334 30.5455 41.3334Z" stroke="black" stroke-width="3"/>
<path d="M19.2085 34.6667C27.2417 48.8383 38.8297 57.3419 45.091 53.66C51.3523 49.9781 49.9158 35.505 41.8826 21.3334C33.8494 7.16172 22.2614 -1.34189 16.0001 2.34001C9.73881 6.02191 11.1753 20.4951 19.2085 34.6667Z" stroke="black" stroke-width="3"/>
<path d="M19.2084 21.3333C11.1752 35.5049 9.73872 49.978 16 53.6599C22.2613 57.3418 33.8493 48.8382 41.8825 34.6666C49.9158 20.495 51.3522 6.02182 45.0909 2.33992C38.8296 -1.34197 27.2416 7.16164 19.2084 21.3333Z" stroke="black" stroke-width="3"/>
</g>
<defs>
<clipPath id="clip0_196_513">
<rect width="61.0909" height="56" fill="white"/>
</clipPath>
</defs>
</svg>
