<svg width="38" height="56" viewBox="0 0 38 56" fill="none" xmlns="http://www.w3.org/2000/svg">
<g clip-path="url(#clip0_196_522)">
<path d="M17.6667 27.9998C17.6667 25.5245 18.6501 23.1505 20.4004 21.4002C22.1508 19.6498 24.5247 18.6665 27.0001 18.6665C29.4754 18.6665 31.8494 19.6498 33.5997 21.4002C35.3501 23.1505 36.3334 25.5245 36.3334 27.9998C36.3334 30.4752 35.3501 32.8492 33.5997 34.5995C31.8494 36.3498 29.4754 37.3332 27.0001 37.3332C24.5247 37.3332 22.1508 36.3498 20.4004 34.5995C18.6501 32.8492 17.6667 30.4752 17.6667 27.9998Z" fill="black"/>
<path d="M9.33301 37.8333H18.167V46.6663C18.167 49.009 17.2357 51.2558 15.5791 52.9124C13.9225 54.5689 11.6758 55.5002 9.33301 55.5002C6.99038 55.5002 4.74341 54.5688 3.08691 52.9124C1.43055 51.2558 0.5 49.0089 0.5 46.6663C0.500086 44.3236 1.43042 42.0767 3.08691 40.4202C4.64 38.8671 6.71217 37.9523 8.89551 37.844L9.33301 37.8333Z" fill="black" stroke="black"/>
<path d="M25.9998 0.5C28.3423 0.5 30.5893 1.43055 32.2458 3.08691C33.9023 4.74341 34.8337 6.99038 34.8337 9.33301C34.8337 11.6758 33.9024 13.9225 32.2458 15.5791C30.5893 17.2357 28.3425 18.167 25.9998 18.167H17.1667V0.5H25.9998Z" stroke="black"/>
<path d="M0 9.33333C0 11.8087 0.98333 14.1827 2.73367 15.933C4.48401 17.6833 6.85798 18.6667 9.33333 18.6667H18.6667V0H9.33333C6.85798 0 4.48401 0.98333 2.73367 2.73367C0.98333 4.48401 0 6.85798 0 9.33333Z" fill="black"/>
<path d="M9.33301 19.1667H18.167V36.8337H9.33301C6.99038 36.8337 4.74341 35.9023 3.08691 34.2458C1.43055 32.5893 0.5 30.3423 0.5 27.9998C0.500086 25.6571 1.43042 23.4102 3.08691 21.7537C4.64 20.2006 6.71217 19.2858 8.89551 19.1775L9.33301 19.1667Z" stroke="black"/>
</g>
<defs>
<clipPath id="clip0_196_522">
<rect width="37.3333" height="56" fill="white"/>
</clipPath>
</defs>
</svg>
