<svg width="92" height="56" viewBox="0 0 92 56" fill="none" xmlns="http://www.w3.org/2000/svg">
<g clip-path="url(#clip0_196_521)">
<mask id="mask0_196_521" style="mask-type:luminance" maskUnits="userSpaceOnUse" x="0" y="0" width="92" height="55">
<path d="M0 0H91.6364V54.9818H0V0Z" fill="white"/>
</mask>
<g mask="url(#mask0_196_521)">
<path fill-rule="evenodd" clip-rule="evenodd" d="M45.8182 0C33.6 0 25.9636 6.10909 22.9091 18.3273C27.4909 12.2182 32.8364 9.92727 38.9455 11.4545C42.431 12.3251 44.9222 14.8553 47.6798 17.6536C52.1716 22.2133 57.3712 27.4909 68.7273 27.4909C80.9454 27.4909 88.5818 21.3818 91.6364 9.16364C87.0545 15.2727 81.7091 17.5636 75.6 16.0364C72.1144 15.1658 69.6233 12.6356 66.8657 9.83733C62.3738 5.27758 57.1743 0 45.8182 0ZM22.9091 27.4909C10.6909 27.4909 3.05455 33.6 0 45.8182C4.58182 39.7091 9.92727 37.4182 16.0364 38.9455C19.5219 39.8177 22.0131 42.3462 24.7707 45.1445C29.2625 49.7042 34.4621 54.9818 45.8182 54.9818C58.0364 54.9818 65.6727 48.8727 68.7273 36.6545C64.1455 42.7636 58.8 45.0545 52.6909 43.5273C49.2053 42.6567 46.7142 40.1265 43.9566 37.3282C39.4647 32.7685 34.2652 27.4909 22.9091 27.4909Z" fill="black"/>
</g>
</g>
<defs>
<clipPath id="clip0_196_521">
<rect width="91.6364" height="56" fill="white"/>
</clipPath>
</defs>
</svg>
