<svg width="50" height="56" viewBox="0 0 50 56" fill="none" xmlns="http://www.w3.org/2000/svg">
<g clip-path="url(#clip0_196_514)">
<path d="M24.727 55.9999C23.9763 55.9999 23.2756 55.7958 22.6249 55.4386L15.9685 51.4076C14.9676 50.8463 15.468 50.6423 15.7684 50.5402C17.1197 50.081 17.3699 49.9789 18.7712 49.1625C18.9214 49.0604 19.1215 49.1115 19.2717 49.2135L24.3766 52.3261C24.5768 52.4282 24.8271 52.4282 24.9772 52.3261L44.9464 40.5392C45.1466 40.4371 45.2467 40.2331 45.2467 39.9779V16.4552C45.2467 16.2001 45.1466 15.996 44.9464 15.8939L24.9772 4.15808C24.777 4.05603 24.5267 4.05603 24.3766 4.15808L4.40741 15.8939C4.20723 15.996 4.10712 16.2511 4.10712 16.4552V39.9779C4.10712 40.182 4.20723 40.4371 4.40741 40.5392L9.86267 43.7538C12.8155 45.2845 14.6673 43.4987 14.6673 41.7128V18.4962C14.6673 18.19 14.9175 17.884 15.2679 17.884H17.8203C18.1206 17.884 18.4209 18.1391 18.4209 18.4962V41.7128C18.4209 45.7438 16.2688 48.091 12.5152 48.091C11.3641 48.091 10.4633 48.091 7.91076 46.8153L2.65573 43.7538C1.35448 42.9884 0.553711 41.5597 0.553711 40.029V16.5062C0.553711 14.9755 1.35448 13.5468 2.65573 12.7814L22.6249 0.994506C23.8762 0.280152 25.5778 0.280152 26.829 0.994506L46.7982 12.7814C48.0994 13.5468 48.9002 14.9755 48.9002 16.5062V40.029C48.9002 41.5597 48.0994 42.9884 46.7982 43.7538L26.829 55.5407C26.2284 55.7958 25.4777 55.9999 24.727 55.9999Z" fill="black"/>
<path d="M30.933 39.8249C22.1745 39.8249 20.3728 35.7429 20.3728 32.2732C20.3728 31.9671 20.623 31.6609 20.9733 31.6609H23.5759C23.8761 31.6609 24.1264 31.865 24.1264 32.1712C24.5268 34.8755 25.6779 36.2022 30.983 36.2022C35.187 36.2022 36.9888 35.2327 36.9888 32.9365C36.9888 31.6099 36.4883 30.6404 29.9319 29.977C24.4767 29.4157 21.0735 28.1912 21.0735 23.7519C21.0735 19.6189 24.4767 17.1697 30.1822 17.1697C36.5884 17.1697 39.7414 19.4148 40.1418 24.3132C40.1418 24.4663 40.0917 24.6194 39.9917 24.7725C39.8916 24.8745 39.7414 24.9766 39.5912 24.9766H36.9387C36.6884 24.9766 36.4382 24.7725 36.3882 24.5173C35.7876 21.7109 34.2361 20.7925 30.1322 20.7925C25.5277 20.7925 24.9772 22.4253 24.9772 23.6499C24.9772 25.1296 25.6279 25.5889 31.8338 26.4053C37.9897 27.2217 40.8925 28.3953 40.8925 32.7835C40.8925 37.2737 37.239 39.8249 30.933 39.8249Z" fill="black"/>
</g>
<defs>
<clipPath id="clip0_196_514">
<rect width="49.28" height="56" fill="white"/>
</clipPath>
</defs>
</svg>
